<svg xmlns="http://www.w3.org/2000/svg" width="1070" height="553" viewBox="0 0 1070 553"><rect width="100%" height="100%" fill="#DDDDDD"/><path fill="#999999" d="M259.725 310.4h16.38v11.65h-50.4V310.4h18.46v-53.11q0-3.15.18-6.49l-13.1 10.96q-1.13.88-2.24 1.1-1.1.22-2.07.03-.98-.19-1.74-.66-.75-.47-1.13-1.04l-4.92-6.74 27.79-23.62h12.79zm94.18-33.9q0 11.91-2.55 20.7-2.55 8.78-7.06 14.52-4.5 5.73-10.64 8.53-6.14 2.81-13.26 2.81t-13.2-2.81q-6.08-2.8-10.55-8.53-4.48-5.74-7-14.52-2.52-8.79-2.52-20.7 0-11.97 2.52-20.73 2.52-8.75 7-14.49 4.47-5.73 10.55-8.53 6.08-2.81 13.2-2.81t13.26 2.81q6.14 2.8 10.64 8.53 4.51 5.74 7.06 14.49 2.55 8.76 2.55 20.73m-16.06 0q0-9.89-1.45-16.38t-3.88-10.33q-2.42-3.84-5.57-5.39-3.15-1.54-6.55-1.54-3.34 0-6.46 1.54-3.12 1.55-5.51 5.39-2.4 3.84-3.82 10.33-1.41 6.49-1.41 16.38t1.41 16.38q1.42 6.49 3.82 10.33 2.39 3.85 5.51 5.39t6.46 1.54q3.4 0 6.55-1.54t5.57-5.39q2.43-3.84 3.88-10.33t1.45-16.38m25.07-45.55h62.94v6.74q0 3.03-.63 4.89-.63 1.85-1.26 3.11l-34.53 71.07q-1.07 2.2-3.02 3.75-1.95 1.54-5.23 1.54h-11.28l35.22-69.61q1.2-2.15 2.36-3.94 1.17-1.8 2.62-3.44h-43.6q-1.45 0-2.52-1.07t-1.07-2.52zm137.15 45.55q0 11.91-2.55 20.7-2.55 8.78-7.06 14.52-4.5 5.73-10.64 8.53-6.15 2.81-13.26 2.81-7.12 0-13.2-2.81-6.08-2.8-10.56-8.53-4.47-5.74-6.99-14.52-2.52-8.79-2.52-20.7 0-11.97 2.52-20.73 2.52-8.75 6.99-14.49 4.48-5.73 10.56-8.53 6.08-2.81 13.2-2.81 7.11 0 13.26 2.81 6.14 2.8 10.64 8.53 4.51 5.74 7.06 14.49 2.55 8.76 2.55 20.73m-16.06 0q0-9.89-1.45-16.38t-3.88-10.33q-2.42-3.84-5.57-5.39-3.15-1.54-6.55-1.54-3.34 0-6.46 1.54-3.12 1.55-5.51 5.39-2.4 3.84-3.82 10.33-1.41 6.49-1.41 16.38t1.41 16.38q1.42 6.49 3.82 10.33 2.39 3.85 5.51 5.39t6.46 1.54q3.4 0 6.55-1.54t5.57-5.39q2.43-3.84 3.88-10.33t1.45-16.38m116.11 24.7-8.26 8.12-21.35-21.35-21.55 21.48-8.25-8.13 21.54-21.61-20.54-20.53 8.19-8.19 20.54 20.53 20.41-20.41 8.32 8.19-20.47 20.48zm66.21-56.14-3.21 18.97q3.02-.63 5.79-.92 2.77-.28 5.36-.28 7.18 0 12.66 2.14t9.2 5.92q3.71 3.78 5.6 8.86 1.89 5.07 1.89 10.93 0 7.24-2.55 13.23-2.55 5.98-7.08 10.23-4.54 4.26-10.75 6.59-6.2 2.33-13.51 2.33-4.28 0-8.13-.88-3.84-.89-7.21-2.37t-6.24-3.4q-2.86-1.92-5.13-4.06l4.79-6.62q1.51-2.14 3.97-2.14 1.57 0 3.21 1.01t3.75 2.2q2.11 1.2 4.97 2.21 2.87 1.01 6.9 1.01 4.29 0 7.56-1.39 3.28-1.38 5.45-3.87 2.18-2.49 3.28-5.93 1.1-3.43 1.1-7.46 0-7.44-4.31-11.62-4.32-4.19-12.76-4.19-6.49 0-13.3 2.39l-9.7-2.77 7.56-44.23h44.98v6.62q0 3.34-2.07 5.42-2.08 2.07-7.06 2.07zm73.08 0-3.21 18.97q3.02-.63 5.79-.92 2.77-.28 5.36-.28 7.18 0 12.66 2.14t9.2 5.92q3.71 3.78 5.6 8.86 1.89 5.07 1.89 10.93 0 7.24-2.55 13.23-2.55 5.98-7.08 10.23-4.54 4.26-10.75 6.59-6.2 2.33-13.51 2.33-4.28 0-8.13-.88-3.84-.89-7.21-2.37t-6.24-3.4q-2.86-1.92-5.13-4.06l4.79-6.62q1.51-2.14 3.97-2.14 1.57 0 3.21 1.01t3.75 2.2q2.11 1.2 4.97 2.21 2.87 1.01 6.9 1.01 4.29 0 7.56-1.39 3.28-1.38 5.45-3.87 2.18-2.49 3.28-5.93 1.1-3.43 1.1-7.46 0-7.44-4.31-11.62-4.32-4.19-12.76-4.19-6.49 0-13.3 2.39l-9.7-2.77 7.56-44.23h44.98v6.62q0 3.34-2.07 5.42-2.08 2.07-7.06 2.07zm59.28 12.73-8.19-1.45q.95-6.55 3.66-11.5 2.7-4.94 6.77-8.25 4.06-3.31 9.32-4.98t11.31-1.67q6.3 0 11.37 1.8 5.07 1.79 8.66 4.98 3.6 3.18 5.52 7.46 1.92 4.29 1.92 9.26 0 4.35-.98 7.66-.97 3.3-2.8 5.76t-4.54 4.16-6.11 2.83q8.19 2.59 12.22 7.88 4.04 5.29 4.04 13.29 0 6.81-2.52 12.04-2.52 5.22-6.81 8.78-4.28 3.56-9.92 5.39t-11.94 1.83q-6.87 0-11.97-1.58-5.1-1.57-8.88-4.66t-6.43-7.56q-2.64-4.47-4.53-10.33l6.86-2.84q2.71-1.13 5.07-.59 2.37.53 3.44 2.55 1.13 2.2 2.49 4.34 1.35 2.15 3.24 3.82 1.89 1.66 4.44 2.7t6.08 1.04q3.97 0 6.93-1.29t4.95-3.37q1.98-2.08 2.96-4.63.97-2.55.97-5.13 0-3.28-.69-5.96-.69-2.67-2.9-4.56-2.2-1.89-6.33-2.97-4.12-1.07-11.05-1.07v-11.08q5.73-.07 9.51-1.07 3.78-1.01 6.02-2.81 2.23-1.79 3.11-4.31.89-2.52.89-5.55 0-6.42-3.6-9.76-3.59-3.34-9.57-3.34-2.77 0-5.1.79-2.34.78-4.19 2.2-1.86 1.42-3.12 3.31t-1.89 4.16q-1.07 2.89-2.81 3.84-1.73.94-4.88.44"/></svg>