<svg xmlns="http://www.w3.org/2000/svg" width="485" height="200" viewBox="0 0 485 200"><rect width="100%" height="100%" fill="#DDDDDD"/><path fill="#999999" d="M104.275 105.79h14.3V90.41q0-2.17.3-4.81zm21.29 0h5.92v4.64q0 .65-.43 1.13-.42.47-1.2.47h-4.29v11.47h-6.99v-11.47h-19.82q-.81 0-1.43-.51-.62-.5-.78-1.25l-.85-4.06 22.27-29.74h7.6zm26.43 11.96q1.98 0 3.47-.57 1.5-.57 2.52-1.58 1.03-1.01 1.54-2.4.52-1.4.52-3.03 0-3.86-2.14-5.85-2.14-1.98-5.91-1.98-3.78 0-5.92 1.98-2.14 1.99-2.14 5.85 0 1.63.52 3.03.51 1.39 1.54 2.4 1.02 1.01 2.52 1.58 1.49.57 3.48.57m0-35.72q-1.79 0-3.09.55t-2.16 1.48q-.87.93-1.27 2.13-.41 1.2-.41 2.54 0 1.39.34 2.71.34 1.31 1.16 2.34.81 1.02 2.14 1.64 1.34.62 3.29.62 1.94 0 3.28-.62 1.33-.62 2.14-1.64.82-1.03 1.16-2.34.34-1.32.34-2.71 0-1.34-.42-2.54-.43-1.2-1.27-2.13-.85-.93-2.15-1.48t-3.08-.55m7.92 16.96q4.3 1.4 6.34 4.28 2.05 2.87 2.05 7.03 0 3.12-1.19 5.66-1.18 2.54-3.33 4.32-2.14 1.79-5.15 2.76-3.01.98-6.64.98-3.65 0-6.65-.98-3.01-.97-5.15-2.76-2.15-1.78-3.33-4.32-1.19-2.54-1.19-5.66 0-4.16 2.05-7.03 2.04-2.88 6.33-4.28-3.41-1.43-5.11-4.06-1.71-2.63-1.71-6.34 0-2.66 1.09-4.97t3.04-4.01q1.95-1.71 4.66-2.67 2.72-.96 5.97-.96t5.96.96 4.66 2.67q1.95 1.7 3.04 4.01t1.09 4.97q0 3.71-1.71 6.34-1.7 2.63-5.12 4.06m25.78-15.21-1.66 9.79q1.56-.33 2.99-.47 1.43-.15 2.76-.15 3.71 0 6.54 1.1 2.82 1.11 4.74 3.06t2.89 4.57q.98 2.61.98 5.63 0 3.74-1.32 6.83-1.31 3.09-3.65 5.28t-5.55 3.4q-3.2 1.2-6.97 1.2-2.21 0-4.19-.45-1.98-.46-3.72-1.22-1.74-.77-3.22-1.76t-2.65-2.09l2.47-3.42q.78-1.1 2.05-1.1.81 0 1.66.52.84.52 1.93 1.13 1.09.62 2.57 1.14t3.56.52q2.21 0 3.9-.71 1.69-.72 2.81-2 1.12-1.29 1.69-3.06t.57-3.85q0-3.83-2.23-5.99t-6.58-2.16q-3.35 0-6.86 1.23l-5-1.43 3.9-22.82h23.2v3.42q0 1.72-1.07 2.79t-3.64 1.07zm72.83 28.96-4.26 4.19-11.01-11.01-11.12 11.08-4.26-4.19 11.12-11.15-10.6-10.6 4.23-4.22 10.59 10.59 10.53-10.52 4.29 4.22-10.56 10.56zm39.13 3.28h12.06q1.3 0 2.06.74.77.73.77 1.93v4.81h-32.24v-2.67q0-.81.34-1.7.34-.9 1.09-1.61l14.26-14.3q1.79-1.82 3.2-3.48 1.42-1.65 2.36-3.28t1.45-3.3q.5-1.67.5-3.53 0-1.68-.49-2.97-.48-1.28-1.38-2.16-.89-.88-2.14-1.32t-2.81-.44q-1.43 0-2.65.41t-2.16 1.14q-.95.73-1.6 1.7-.65.98-.97 2.15-.55 1.49-1.43 1.98t-2.54.23l-4.22-.75q.49-3.38 1.88-5.93 1.4-2.55 3.5-4.26 2.09-1.7 4.81-2.56 2.71-.87 5.83-.87 3.25 0 5.95.96t4.61 2.72q1.92 1.75 2.99 4.22 1.08 2.47 1.08 5.49 0 2.6-.77 4.81-.76 2.21-2.05 4.23-1.28 2.02-3 3.9-1.72 1.89-3.61 3.83l-10.59 10.83q1.52-.46 3.03-.7 1.52-.25 2.88-.25m53.95-16.02q0 6.14-1.32 10.68-1.31 4.53-3.64 7.49-2.32 2.96-5.49 4.4-3.17 1.45-6.84 1.45t-6.81-1.45q-3.13-1.44-5.44-4.4t-3.61-7.49q-1.3-4.54-1.3-10.68 0-6.17 1.3-10.69t3.61-7.47q2.31-2.96 5.44-4.41 3.14-1.45 6.81-1.45t6.84 1.45 5.49 4.41q2.33 2.95 3.64 7.47 1.32 4.52 1.32 10.69m-8.29 0q0-5.1-.74-8.45-.75-3.35-2-5.33t-2.88-2.78q-1.62-.79-3.38-.79-1.72 0-3.33.79-1.61.8-2.84 2.78-1.24 1.98-1.97 5.33t-.73 8.45q0 5.11.73 8.45.73 3.35 1.97 5.33 1.23 1.98 2.84 2.78t3.33.8q1.76 0 3.38-.8 1.63-.8 2.88-2.78t2-5.33q.74-3.34.74-8.45m45.99 0q0 6.14-1.32 10.68-1.31 4.53-3.64 7.49-2.32 2.96-5.49 4.4-3.17 1.45-6.84 1.45t-6.81-1.45q-3.13-1.44-5.44-4.4t-3.61-7.49q-1.3-4.54-1.3-10.68 0-6.17 1.3-10.69t3.61-7.47q2.31-2.96 5.44-4.41 3.14-1.45 6.81-1.45t6.84 1.45 5.49 4.41q2.33 2.95 3.64 7.47 1.32 4.52 1.32 10.69m-8.29 0q0-5.1-.74-8.45-.75-3.35-2-5.33t-2.88-2.78q-1.62-.79-3.38-.79-1.72 0-3.33.79-1.61.8-2.84 2.78-1.24 1.98-1.97 5.33t-.73 8.45q0 5.11.73 8.45.73 3.35 1.97 5.33 1.23 1.98 2.84 2.78t3.33.8q1.76 0 3.38-.8 1.63-.8 2.88-2.78t2-5.33q.74-3.34.74-8.45"/></svg>